<svg xmlns="http://www.w3.org/2000/svg" width="24" height="24" viewBox="0 0 24 24" fill="none">
    <path fill-rule="evenodd" clip-rule="evenodd" d="M22 12C22 17.5228 17.5228 22 12 22C6.47715 22 2 17.5228 2 12C2 6.47715 6.47715 2 12 2C17.5228 2 22 6.47715 22 12ZM17.5607 9.06066C17.8536 8.76777 17.8536 8.29289 17.5607 8C17.2678 7.70711 16.7929 7.70711 16.5 8L10.0303 14.4697L7.56066 12C7.26777 11.7071 6.79289 11.7071 6.5 12C6.20711 12.2929 6.20711 12.7678 6.5 13.0607L9.5 16.0607C9.79289 16.3536 10.2678 16.3536 10.5607 16.0607L17.5607 9.06066Z" fill="#1BA258"/>
</svg>
