<svg xmlns="http://www.w3.org/2000/svg" width="16" height="18" viewBox="0 0 16 18" fill="none">
    <path d="M6.32683 5.66667H7.99349M7.99349 5.66667H9.66016M7.99349 5.66667V4M7.99349 5.66667V7.33333M11.3333 13.175L11.3417 13.1657M11.3333 9.84167L11.3417 9.83241M8 9.84167L8.00834 9.83241M4.66667 9.84167L4.675 9.83241M4.66667 13.175L4.675 13.1657M8 13.175L8.00834 13.1657M12.1667 5.16667V2C12.1667 1.72386 11.9428 1.5 11.6667 1.5H4.33334C4.05719 1.5 3.83334 1.72386 3.83334 2V5.16667C3.83334 5.44281 3.60948 5.66667 3.33334 5.66667H1.83334C1.55719 5.66667 1.33334 5.89052 1.33334 6.16667V16C1.33334 16.2761 1.55719 16.5 1.83334 16.5H14.1667C14.4428 16.5 14.6667 16.2761 14.6667 16V6.16667C14.6667 5.89052 14.4428 5.66667 14.1667 5.66667H12.6667C12.3905 5.66667 12.1667 5.44281 12.1667 5.16667Z" stroke="#333333" stroke-width="1.5" stroke-linecap="round" stroke-linejoin="round"/>
</svg>
