<svg xmlns="http://www.w3.org/2000/svg" width="20" height="16" viewBox="0 0 20 16" fill="none">
    <path d="M15 14.6666L18.1869 11.4797C18.2807 11.3859 18.3333 11.2588 18.3333 11.1261V6.74992C18.3333 6.05956 17.7737 5.49992 17.0833 5.49992C16.393 5.49992 15.8333 6.05956 15.8333 6.74992V10.4999M15 11.3333L15.7151 10.6181C15.7908 10.5424 15.8333 10.4398 15.8333 10.3327C15.8333 10.1798 15.7469 10.0401 15.6102 9.97169L15.2411 9.78714C14.5995 9.46632 13.8245 9.59207 13.3172 10.0993L12.5715 10.8451C12.2589 11.1577 12.0833 11.5816 12.0833 12.0236V14.6666M5 14.6666L1.81311 11.4797C1.71934 11.3859 1.66666 11.2588 1.66666 11.1261V6.74992C1.66666 6.05956 2.22631 5.49992 2.91666 5.49992C3.60702 5.49992 4.16666 6.05956 4.16666 6.74992V10.4999M5 11.3333L4.28489 10.6181C4.20919 10.5424 4.16666 10.4398 4.16666 10.3327C4.16666 10.1798 4.25305 10.0401 4.3898 9.97169L4.75889 9.78714C5.40053 9.46632 6.17549 9.59207 6.68275 10.0993L7.42851 10.8451C7.74107 11.1577 7.91666 11.5816 7.91666 12.0236V14.6666M8.61111 7.99992H11.3889V6.05547H13.3333V3.2777H11.3889V1.33325H8.61111V3.2777H6.66666V6.05547H8.61111V7.99992Z" stroke="#333333" stroke-width="1.5" stroke-linecap="round" stroke-linejoin="round"/>
</svg>
