<svg xmlns="http://www.w3.org/2000/svg" width="20" height="20" viewBox="0 0 20 20" fill="none">
    <g clip-path="url(#clip0_83_57182)">
        <path d="M10 12.5001C11.3807 12.5001 12.5 11.3808 12.5 10.0001C12.5 8.61937 11.3807 7.50008 10 7.50008C8.61929 7.50008 7.5 8.61937 7.5 10.0001C7.5 11.3808 8.61929 12.5001 10 12.5001Z" stroke="#32178B" stroke-width="1.5" stroke-linecap="round" stroke-linejoin="round"/>
        <path d="M16.352 8.66291L15.4373 6.45408L16.6667 5.00008L15 3.33341L13.5539 4.56921L11.2981 3.64153L10.7794 1.66675H9.15081L8.62423 3.66769L6.42034 4.59672L5 3.33341L3.33333 5.00008L4.54447 6.49079L3.64375 8.70536L1.66666 9.16675V10.8334L3.66759 11.3797L4.59646 13.5832L3.33333 15.0001L5 16.6667L6.49263 15.4503L8.66418 16.3437L9.16666 18.3334H10.8333L11.3371 16.3444L13.5459 15.4297C13.9141 15.6928 15 16.6667 15 16.6667L16.6667 15.0001L15.4299 13.5413L16.3449 11.3318L18.3332 10.8144L18.3333 9.16675L16.352 8.66291Z" stroke="#32178B" stroke-width="1.5" stroke-linecap="round" stroke-linejoin="round"/>
    </g>
    <defs>
        <clipPath id="clip0_83_57182">
            <rect width="20" height="20" fill="white"/>
        </clipPath>
    </defs>
</svg>
